<?xml version="1.0" encoding="utf-8"?>
<!-- Generator: Adobe Illustrator 27.5.0, SVG Export Plug-In . SVG Version: 6.00 Build 0)  -->
<svg version="1.1" id="Calque_2_00000165215687106274835660000013848250389326935697_"
	 xmlns="http://www.w3.org/2000/svg" xmlns:xlink="http://www.w3.org/1999/xlink" x="0px" y="0px" viewBox="0 0 3891.6 1086.63"
	 style="enable-background:new 0 0 3891.6 1086.63;" xml:space="preserve">
<style type="text/css">
	.st0{fill:#FFFFFF;}
</style>
<path class="st0" d="M873.08,448.67L217.83,70.35C139.53,25.13,41.66,81.66,41.66,172.06v756.63c0,90.44,97.87,146.93,176.17,101.71
	l655.25-378.32C951.38,606.87,951.38,493.84,873.08,448.67z M727.67,478.07L315.66,901.81c-16.02,16.48-43.86,9.42-50.13-12.68
	L104.55,320.44c-6.28-22.09,13.75-42.7,36.05-37.08l572.99,144.95C735.85,433.92,743.7,461.59,727.67,478.07L727.67,478.07z"/>
<g>
	<path class="st0" d="M1144.78,472.26c13.29-26.62,31.41-47.08,54.36-61.44c22.95-14.33,48.52-21.5,76.78-21.5
		c24.16,0,45.34,4.91,63.58,14.74c18.21,9.83,32.25,22.74,42.08,38.7v-48.52h105.05v342.8h-105.05v-48.52
		c-10.23,15.98-24.48,28.87-42.68,38.7c-18.24,9.83-39.42,14.74-63.58,14.74c-27.86,0-53.23-7.25-76.18-21.82
		c-22.95-14.54-41.07-35.23-54.36-62.05c-13.32-26.82-19.97-57.86-19.97-93.08s6.65-66.15,19.97-92.77V472.26z M1359.79,503.59
		c-14.54-15.14-32.25-22.74-53.15-22.74s-38.61,7.48-53.15,22.43c-14.54,14.94-21.82,35.55-21.82,61.73
		c0,26.18,7.25,46.99,21.82,62.36c14.54,15.35,32.25,23.03,53.15,23.03s38.61-7.57,53.15-22.74c14.54-15.14,21.82-35.83,21.82-62.05
		c0-26.21-7.28-46.9-21.82-62.05V503.59z"/>
	<path class="st0" d="M1713.94,406.83c18.44-10.84,38.9-16.27,61.44-16.27v111.2h-28.87c-26.21,0-45.86,5.64-58.98,16.91
		c-13.12,11.27-19.65,31.04-19.65,59.27v159.12h-105.05v-342.8h105.05v57.13c12.28-18.84,27.66-33.7,46.06-44.53L1713.94,406.83z"/>
	<path class="st0" d="M2035.22,737.03l-104.44-143.74v143.74h-105.05V282.42h105.05v251.25l103.83-139.44h129.61l-142.53,172.01
		l143.74,170.79h-130.25L2035.22,737.03z"/>
	<path class="st0" d="M2204.48,472.26c13.29-26.62,31.41-47.08,54.36-61.44c22.95-14.33,48.52-21.5,76.78-21.5
		c24.16,0,45.34,4.91,63.58,14.74c18.21,9.83,32.25,22.74,42.08,38.7v-48.52h105.05v342.8h-105.05v-48.52
		c-10.23,15.98-24.48,28.87-42.68,38.7c-18.24,9.83-39.42,14.74-63.58,14.74c-27.86,0-53.23-7.25-76.18-21.82
		c-22.95-14.54-41.07-35.23-54.36-62.05c-13.32-26.82-19.97-57.86-19.97-93.08s6.65-66.15,19.97-92.77V472.26z M2419.49,503.59
		c-14.54-15.14-32.25-22.74-53.15-22.74c-20.89,0-38.61,7.48-53.15,22.43c-14.54,14.94-21.82,35.55-21.82,61.73
		c0,26.18,7.25,46.99,21.82,62.36c14.54,15.35,32.25,23.03,53.15,23.03c20.89,0,38.61-7.57,53.15-22.74
		c14.54-15.14,21.82-35.83,21.82-62.05c0-26.21-7.28-46.9-21.82-62.05V503.59z"/>
	<path class="st0" d="M2700.53,282.45v454.61h-70.02V282.45H2700.53z"/>
	<path class="st0" d="M2790.52,475.96c14.13-26.21,33.38-46.59,57.74-61.12c24.36-14.54,51.3-21.82,80.77-21.82
		c26.62,0,49.85,5.23,69.73,15.66c19.85,10.43,35.72,23.44,47.6,39.01v-49.16h70.66v338.49h-70.66v-50.37
		c-11.88,15.98-28.06,29.27-48.52,39.94c-20.49,10.64-43.84,15.98-70.02,15.98c-29.07,0-55.69-7.46-79.85-22.43
		c-24.16-14.94-43.32-35.83-57.45-62.65c-14.13-26.82-21.18-57.22-21.18-91.23C2769.34,532.25,2776.39,502.17,2790.52,475.96
		L2790.52,475.96z M3031.94,506.68c-9.62-17.19-22.22-30.32-37.77-39.3c-15.58-9.02-32.37-13.52-50.37-13.52
		c-18,0-34.82,4.39-50.37,13.21c-15.58,8.81-28.18,21.7-37.77,38.7c-9.62,16.99-14.45,37.16-14.45,60.51
		c0,23.35,4.8,43.84,14.45,61.44c9.62,17.6,22.31,31.04,38.09,40.23c15.75,9.22,32.45,13.81,50.08,13.81
		c17.63,0,34.79-4.51,50.37-13.52c15.55-9.02,28.15-22.22,37.77-39.62c9.62-17.4,14.45-37.77,14.45-61.12s-4.83-43.61-14.45-60.83
		L3031.94,506.68z"/>
	<path class="st0" d="M3328.04,408.68c20.66-10.43,43.72-15.66,69.13-15.66c29.88,0,56.93,7.17,81.09,21.5
		c24.16,14.33,43.2,34.71,57.13,61.12c13.93,26.41,20.89,56.61,20.89,90.6c0,33.99-6.97,64.42-20.89,91.23
		c-13.93,26.82-33.09,47.71-57.45,62.65c-24.36,14.94-51.3,22.43-80.77,22.43c-26.21,0-49.45-5.12-69.73-15.35
		c-20.29-10.23-36.36-23.35-48.23-39.3v49.16h-70.02V282.45h70.02v166.49c11.88-16.39,28.15-29.8,48.84-40.23V408.68z
		 M3470.57,505.75c-9.62-16.99-22.34-29.88-38.09-38.7c-15.78-8.81-32.66-13.21-50.69-13.21s-34.3,4.51-50.08,13.52
		s-28.47,22.11-38.09,39.3c-9.62,17.19-14.45,37.48-14.45,60.83s4.8,43.72,14.45,61.12c9.62,17.43,22.31,30.63,38.09,39.62
		c15.75,9.02,32.45,13.52,50.08,13.52s34.91-4.59,50.69-13.81c15.75-9.22,28.47-22.63,38.09-40.23
		c9.62-17.6,14.45-38.09,14.45-61.44c0-23.35-4.83-43.52-14.45-60.51V505.75z"/>
	<path class="st0" d="M3677,728.13c-21.1-9.62-37.77-22.74-50.08-39.33c-12.28-16.59-18.84-35.11-19.65-55.6h72.48
		c1.21,14.33,8.09,26.33,20.58,35.95c12.48,9.62,28.15,14.45,46.99,14.45s34.91-3.79,45.78-11.36
		c10.84-7.57,16.27-17.31,16.27-29.19c0-12.69-6.04-22.11-18.12-28.26c-12.08-6.16-31.24-12.89-57.45-20.26
		c-25.4-6.96-46.06-13.73-62.05-20.29c-15.98-6.56-29.8-16.59-41.47-30.11s-17.51-31.33-17.51-53.43c0-18,5.32-34.51,15.98-49.45
		c10.64-14.94,25.89-26.73,45.78-35.31c19.85-8.61,42.68-12.89,68.49-12.89c38.49,0,69.5,9.74,93.08,29.19
		c23.55,19.45,36.15,45.98,37.77,79.56h-70.02c-1.24-15.14-7.37-27.22-18.44-36.24c-11.07-9.02-26.01-13.52-44.85-13.52
		s-32.57,3.5-42.39,10.43c-9.83,6.96-14.74,16.18-14.74,27.66c0,9.02,3.27,16.59,9.83,22.74c6.53,6.16,14.54,10.95,23.96,14.45
		c9.42,3.5,23.35,7.89,41.79,13.21c24.56,6.56,44.74,13.21,60.51,19.97c15.75,6.76,29.39,16.7,40.86,29.8
		c11.47,13.12,17.4,30.52,17.83,52.22c0,19.25-5.32,36.47-15.98,51.61c-10.66,15.17-25.69,27.02-45.14,35.63
		c-19.45,8.61-42.28,12.89-68.49,12.89c-26.21,0-50.49-4.83-71.58-14.45L3677,728.13z"/>
</g>
<circle class="st0" cx="372.36" cy="554.3" r="131.45"/>
</svg>
