<?xml version="1.0" encoding="UTF-8"?>
<svg id="Calque_3" data-name="Calque 3" xmlns="http://www.w3.org/2000/svg" viewBox="0 0 2610.58 1139">
  <defs>
    <style>
      .cls-1 {
        fill: #cb1145;
      }

      .cls-2, .cls-3 {
        fill: #fff;
      }

      .cls-3 {
        font-size: 212.58px;
      }

      .cls-4 {
        font-family: Poppins-Medium, Poppins;
        font-weight: 500;
      }

      .cls-5 {
        font-family: Poppins-Bold, Poppins;
        font-weight: 700;
      }
    </style>
  </defs>
  <text class="cls-3" transform="translate(1641.67 1010.18)"><tspan class="cls-5" x="0" y="0">arka</tspan><tspan class="cls-4" x="511.03" y="0">labs</tspan></text>
  <circle class="cls-2" cx="1399.55" cy="932.96" r="46.04"/>
  <path class="cls-1" d="m1420.15,1098.14l80.71-158.6c3.14-6.18-4.85-11.96-9.73-7.03l-125.38,126.44h0c-2.59,2.54-4.83,5.52-6.56,8.92-8.42,16.55-2.01,36.75,14.3,45.45,16.83,8.98,37.99,1.82,46.65-15.18Z"/>
  <path class="cls-1" d="m1246.32,867.96l96.75,149.36c3.77,5.82,12.78,1.8,10.97-4.89l-46.53-171.88h0c-.89-3.51-2.35-6.93-4.43-10.14-10.09-15.58-30.79-20.17-46.49-10.41s-20.63,31.96-10.25,47.97Z"/>
  <path class="cls-1" d="m1532.14,832.33l-177.69,9.69c-6.92.38-7.91,10.19-1.21,11.95l172.27,45.08h0c3.49.96,7.19,1.4,11,1.19,18.54-1.01,32.8-16.69,32.15-35.16-.67-19.07-17.48-33.78-36.52-32.75Z"/>
</svg>