<?xml version="1.0" encoding="UTF-8"?>
<svg id="Calque_2" data-name="Calque 2" xmlns="http://www.w3.org/2000/svg" viewBox="0 0 5137.41 1700.62">
  <defs>
    <style>
      .cls-1 {
        fill: #cb1145;
      }

      .cls-2 {
        fill: #616160;
      }

      .cls-3 {
        fill: #3a3d47;
      }
    </style>
  </defs>
  <path class="cls-1" d="m4115.97,1139.37l-158.67-91.61c-18.96-10.95-42.66,2.74-42.66,24.63v183.22c0,21.9,23.7,35.58,42.66,24.63l158.67-91.61c18.96-10.95,18.96-38.32,0-49.26Zm-35.21,7.12l-99.77,102.61c-3.88,3.99-10.62,2.28-12.14-3.07l-38.98-137.71c-1.52-5.35,3.33-10.34,8.73-8.98l138.75,35.1c5.39,1.36,7.29,8.06,3.41,12.05Z"/>
  <g>
    <path class="cls-3" d="m4191.56,1140.9c4.6-9.21,10.87-16.29,18.81-21.26,7.94-4.96,16.79-7.44,26.57-7.44,8.36,0,15.69,1.7,22,5.1,6.3,3.4,11.16,7.87,14.56,13.39v-16.79h36.35v118.62h-36.35v-16.79c-3.54,5.53-8.47,9.99-14.77,13.39-6.31,3.4-13.64,5.1-22,5.1-9.64,0-18.42-2.51-26.36-7.55-7.94-5.03-14.21-12.19-18.81-21.47-4.61-9.28-6.91-20.02-6.91-32.21s2.3-22.89,6.91-32.1Zm74.4,10.84c-5.03-5.24-11.16-7.87-18.39-7.87s-13.36,2.59-18.39,7.76c-5.03,5.17-7.55,12.3-7.55,21.36s2.51,16.26,7.55,21.58c5.03,5.31,11.16,7.97,18.39,7.97s13.36-2.62,18.39-7.87c5.03-5.24,7.55-12.4,7.55-21.47s-2.52-16.23-7.55-21.47Z"/>
    <path class="cls-3" d="m4388.51,1118.26c6.38-3.75,13.46-5.63,21.26-5.63v38.48h-9.99c-9.07,0-15.87,1.95-20.41,5.85-4.54,3.9-6.8,10.74-6.8,20.51v55.06h-36.35v-118.62h36.35v19.77c4.25-6.52,9.57-11.66,15.94-15.41Z"/>
    <path class="cls-3" d="m4499.68,1232.52l-36.14-49.74v49.74h-36.35v-157.31h36.35v86.94l35.93-48.25h44.85l-49.32,59.52,49.74,59.1h-45.07Z"/>
    <path class="cls-3" d="m4558.25,1140.9c4.6-9.21,10.87-16.29,18.81-21.26,7.94-4.96,16.79-7.44,26.57-7.44,8.36,0,15.69,1.7,22,5.1,6.3,3.4,11.16,7.87,14.56,13.39v-16.79h36.35v118.62h-36.35v-16.79c-3.54,5.53-8.47,9.99-14.77,13.39-6.31,3.4-13.64,5.1-22,5.1-9.64,0-18.42-2.51-26.36-7.55-7.94-5.03-14.21-12.19-18.81-21.47-4.61-9.28-6.91-20.02-6.91-32.21s2.3-22.89,6.91-32.1Zm74.4,10.84c-5.03-5.24-11.16-7.87-18.39-7.87s-13.36,2.59-18.39,7.76c-5.03,5.17-7.55,12.3-7.55,21.36s2.51,16.26,7.55,21.58c5.03,5.31,11.16,7.97,18.39,7.97s13.36-2.62,18.39-7.87c5.03-5.24,7.55-12.4,7.55-21.47s-2.52-16.23-7.55-21.47Z"/>
    <path class="cls-2" d="m4729.9,1075.22v157.31h-24.23v-157.31h24.23Z"/>
    <path class="cls-2" d="m4761.04,1142.18c4.89-9.07,11.55-16.12,19.98-21.15,8.43-5.03,17.75-7.55,27.95-7.55,9.21,0,17.25,1.81,24.13,5.42,6.87,3.61,12.36,8.11,16.47,13.5v-17.01h24.45v117.13h-24.45v-17.43c-4.11,5.53-9.71,10.13-16.79,13.82-7.09,3.68-15.17,5.53-24.23,5.53-10.06,0-19.27-2.58-27.63-7.76-8.36-5.17-14.99-12.4-19.88-21.68-4.89-9.28-7.33-19.8-7.33-31.57s2.44-22.18,7.33-31.25Zm83.54,10.63c-3.33-5.95-7.69-10.49-13.07-13.6-5.39-3.12-11.2-4.68-17.43-4.68s-12.05,1.52-17.43,4.57c-5.39,3.05-9.75,7.51-13.07,13.39-3.33,5.88-5,12.86-5,20.94s1.66,15.17,5,21.26c3.33,6.09,7.72,10.74,13.18,13.92,5.45,3.19,11.23,4.78,17.33,4.78s12.04-1.56,17.43-4.68c5.38-3.12,9.74-7.69,13.07-13.71,3.33-6.02,5-13.07,5-21.15s-1.67-15.09-5-21.05Z"/>
    <path class="cls-2" d="m4947.04,1118.9c7.15-3.61,15.13-5.42,23.92-5.42,10.34,0,19.7,2.48,28.06,7.44,8.36,4.96,14.95,12.01,19.77,21.15,4.82,9.14,7.23,19.59,7.23,31.35s-2.41,22.29-7.23,31.57c-4.82,9.28-11.45,16.51-19.88,21.68-8.43,5.17-17.75,7.76-27.95,7.76-9.07,0-17.11-1.77-24.13-5.31s-12.58-8.08-16.69-13.6v17.01h-24.23v-157.31h24.23v57.61c4.11-5.67,9.74-10.31,16.9-13.92Zm49.32,33.59c-3.33-5.88-7.73-10.34-13.18-13.39-5.46-3.05-11.3-4.57-17.54-4.57s-11.87,1.56-17.33,4.68c-5.46,3.12-9.85,7.65-13.18,13.6-3.33,5.95-5,12.97-5,21.05s1.66,15.13,5,21.15c3.33,6.03,7.72,10.6,13.18,13.71,5.45,3.12,11.23,4.68,17.33,4.68s12.08-1.59,17.54-4.78c5.45-3.19,9.85-7.83,13.18-13.92,3.33-6.09,5-13.18,5-21.26s-1.67-15.06-5-20.94Z"/>
    <path class="cls-2" d="m5067.79,1229.44c-7.3-3.33-13.07-7.87-17.33-13.61-4.25-5.74-6.52-12.15-6.8-19.24h25.08c.42,4.96,2.8,9.11,7.12,12.44,4.32,3.33,9.74,5,16.26,5s12.08-1.31,15.84-3.93c3.75-2.62,5.63-5.99,5.63-10.1,0-4.39-2.09-7.65-6.27-9.78-4.18-2.13-10.81-4.46-19.88-7.01-8.79-2.41-15.94-4.75-21.47-7.02-5.53-2.27-10.31-5.74-14.35-10.42-4.04-4.68-6.06-10.84-6.06-18.49,0-6.23,1.84-11.94,5.53-17.11,3.68-5.17,8.96-9.25,15.84-12.22,6.87-2.98,14.77-4.46,23.7-4.46,13.32,0,24.05,3.37,32.21,10.1,8.15,6.73,12.51,15.91,13.07,27.53h-24.23c-.43-5.24-2.55-9.42-6.38-12.54-3.83-3.12-9-4.68-15.52-4.68s-11.27,1.21-14.67,3.61c-3.4,2.41-5.1,5.6-5.1,9.57,0,3.12,1.13,5.74,3.4,7.87,2.26,2.13,5.03,3.79,8.29,5,3.26,1.21,8.08,2.73,14.46,4.57,8.5,2.27,15.48,4.57,20.94,6.91,5.45,2.34,10.17,5.78,14.14,10.31,3.97,4.54,6.02,10.56,6.17,18.07,0,6.66-1.84,12.62-5.53,17.86-3.69,5.25-8.89,9.35-15.62,12.33-6.73,2.98-14.63,4.46-23.7,4.46s-17.47-1.67-24.77-5Z"/>
  </g>
  <circle class="cls-1" cx="3994.72" cy="1164.95" r="31.83"/>
</svg>